<svg xmlns="http://www.w3.org/2000/svg" width="201" height="37" viewBox="0 0 201 37" fill="currentColor">
<g transform="translate(0,1.17)"><path d="M 0 3.862 C 0 5.969 1.878 7.775 4.165 7.775 C 6.451 7.775 8.323 5.969 8.323 3.862 C 8.323 1.754 6.446 0 4.165 0 C 1.884 0 0 1.806 0 3.862 Z" fill-rule="nonzero"></path></g>
<g transform="translate(10.816,1.363)"><path d="M 12.638 6.328 L 12.638 0 L 0.052 0 L 0 0.103 C 0.714 1.806 0.714 4.471 0 6.174 L 0.052 6.322 L 12.638 6.322 L 12.638 6.328 Z" fill-rule="nonzero"></path></g>
<g transform="translate(0.962,11.559)"><path d="M 21.382 3.884 L 6.4 3.884 L 6.4 0.046 L 6.296 0 C 4.574 0.706 1.884 0.706 0.156 0 L 0 0.046 L 0 24.936 L 6.394 24.936 L 6.394 10.207 L 21.376 10.207 L 21.376 3.884 L 21.382 3.884 Z" fill-rule="nonzero"></path></g>
<g transform="translate(25.066,11.331)"><path d="M 13.197 19.924 C 9.291 19.924 6.4 16.814 6.4 12.947 C 6.4 9.079 9.245 5.969 13.197 5.969 C 17.148 5.969 19.993 9.079 19.993 12.947 C 19.993 16.814 17.05 19.924 13.197 19.924 Z M 13.197 0 C 5.737 0 0 5.719 0 12.947 C 0 20.175 5.737 25.893 13.197 25.893 C 20.656 25.893 26.341 20.175 26.341 12.947 C 26.341 5.719 20.604 0 13.197 0 Z" fill-rule="nonzero"></path></g>
<g transform="translate(53.43,12.134)"><path d="M 9.078 24.993 C 12.119 24.993 15.27 23.586 16.843 20.374 L 16.843 24.338 L 23.035 24.338 L 23.035 0 L 16.693 0 L 16.693 13.55 C 16.693 16.911 14.458 19.07 11.417 19.07 C 8.375 19.07 6.394 17.013 6.394 13.698 L 6.394 0 L 0 0 L 0 16.011 C 0 21.28 3.957 24.993 9.084 24.993" fill-rule="nonzero"></path></g>
<g transform="translate(80.371,11.479)"><path d="M 0.011 6.123 L 0.011 24.993 L 6.405 24.993 L 6.405 11.397 C 6.405 8.037 8.738 5.924 11.785 5.924 C 15.034 5.924 16.958 7.98 16.958 11.244 L 16.958 24.993 L 23.352 24.993 L 23.352 8.885 C 23.352 3.714 19.394 0 14.06 0 C 10.915 0 7.822 1.504 6.244 4.42 L 6.244 0.655 L 0 0.655 L 0 6.129 L 0.011 6.123 Z" fill-rule="nonzero"></path></g>
<g transform="translate(105.746,0.993)"><path d="M 13.145 30.211 C 9.285 30.211 6.394 27.146 6.394 23.284 C 6.394 19.423 9.187 16.41 13.145 16.41 C 17.102 16.41 19.947 19.474 19.947 23.284 C 19.947 27.095 17.102 30.211 13.145 30.211 Z M 19.792 0 L 19.792 14.655 C 18.07 11.995 14.821 10.594 11.722 10.594 C 4.718 10.594 0 16.216 0 23.29 C 0 30.364 4.718 36.037 11.722 36.037 C 14.867 36.037 18.265 34.579 19.942 31.72 L 19.993 35.485 L 26.186 35.485 L 26.186 0 L 19.792 0 Z" fill-rule="nonzero"></path></g>
<g transform="translate(134.017,11.382)"><path d="M 6.348 9.985 C 7.159 7.074 9.389 5.263 12.487 5.263 C 15.789 5.263 17.971 7.069 18.732 9.985 L 6.353 9.985 L 6.348 9.985 Z M 12.534 0 C 5.276 0 0 5.77 0 12.895 C 0 20.021 5.328 25.842 12.89 25.842 C 18.017 25.842 22.429 23.632 24.612 18.916 L 24.612 18.768 C 22.937 18.819 20.402 17.611 19.383 16.307 L 19.278 16.307 C 18.467 18.563 16.237 20.425 13.035 20.425 C 9.532 20.425 6.843 18.369 6.134 14.855 L 24.762 14.855 C 25.88 6.624 20.858 0 12.534 0 Z" fill-rule="nonzero"></path></g>
<g transform="translate(161.163,11.69)"><path d="M 0.011 7.319 L 0.011 24.783 L 6.406 24.783 L 6.406 14.342 C 6.406 10.224 7.673 6.516 11.682 6.516 C 12.851 6.516 13.917 6.818 14.469 7.268 L 14.619 7.222 C 14.723 5.462 16.192 2.905 17.615 1.954 L 17.615 1.806 C 16.601 0.649 14.924 0 12.689 0 C 9.545 0 7.362 1.908 6.244 4.568 L 6.244 0.45 L 0 0.45 L 0 7.325 L 0.011 7.319 Z" fill-rule="nonzero"></path></g>
<g transform="translate(179.85,12.134)"><path d="M 0 24.338 L 20.962 24.338 L 20.962 18.665 L 8.83 18.665 L 8.83 18.415 L 20.708 4.921 L 20.708 0 L 0.455 0 L 0.455 5.673 L 11.923 5.673 L 11.923 5.872 L 0 19.371 L 0 24.338 Z" fill-rule="nonzero"></path></g>
</svg>